<?xml version="1.0" encoding="UTF-8"?>
<svg xmlns="http://www.w3.org/2000/svg" version="1.1" viewBox="0 0 31.9 32">
  <defs>
    <style>
      .cls-1 {
        fill: #09f;
      }

      .cls-2 {
        fill: #fff;
      }
    </style>
  </defs>
  <!-- Generator: Adobe Illustrator 28.6.0, SVG Export Plug-In . SVG Version: 1.2.0 Build 709)  -->
  <g>
    <g id="Layer_1">
      <rect class="cls-1" x="1" y="1" width="30" height="30" rx="4" ry="4"/>
      <g>
        <path class="cls-2" d="M7,13.5h-1.5c-1.1,0-1.9-.8-1.9-2s.2-.5.5-.5.5.2.5.5c0,.6.4,1,1,1h1.5c.6,0,1-.3,1-1v-.9c0-.6,0-.9-1.7-.9s-2.7-.3-2.7-2.2v-.3c0-1.2.9-1.9,1.9-1.9h1.5c1.1,0,1.9.7,1.9,1.9h0c0,.4-.2.6-.5.6s-.5-.2-.5-.5h0c0-.7-.4-1.1-1-1.1h-1.5c-.6,0-1,.3-1,1v.3c0,1,.2,1.2,1.7,1.2s2.7.4,2.7,1.9v.9c0,1.2-.8,1.9-1.9,1.9Z"/>
        <path class="cls-2" d="M15.4,6.2h-1.9v6.8c0,.3-.2.5-.5.5s-.5-.2-.5-.5v-6.8h-1.9c-.3,0-.5-.2-.5-.5s.2-.5.5-.5h4.7c.3,0,.5.2.5.5s-.2.5-.5.5Z"/>
        <path class="cls-2" d="M21.5,13.5h-4c-.3,0-.5-.2-.5-.5v-7.3c0-.3.2-.5.5-.5s.5.2.5.5v6.8h3.5c.3,0,.5.2.5.5s-.2.5-.5.5Z"/>
        <path class="cls-2" d="M26.4,10l-3.1,2.7c-.1,0-.2.1-.3.1-.3,0-.5-.2-.5-.5s0-.3.2-.4l2.7-2.3-2.6-2.3c-.1-.1-.2-.2-.2-.4,0-.3.2-.5.5-.5s.2,0,.3.1l3,2.7c.1,0,.2.2.2.4s0,.2-.2.4Z"/>
        <path class="cls-2" d="M6.9,20.6l-3.1,2.7c-.1,0-.2.1-.3.1-.3,0-.5-.2-.5-.5s0-.3.2-.4l2.7-2.3-2.6-2.3c-.1-.1-.2-.2-.2-.4,0-.3.2-.5.5-.5s.2,0,.3.1l3,2.7c.1,0,.2.3.2.4s0,.3-.2.4Z"/>
        <path class="cls-2" d="M12.5,24.1h-1.5c-1.1,0-1.9-.8-1.9-2s.2-.5.5-.5.5.2.5.5c0,.6.4,1,1,1h1.5c.6,0,1-.3,1-1v-.9c0-.6,0-.9-1.7-.9s-2.7-.3-2.7-2.2v-.3c0-1.2.9-1.9,1.9-1.9h1.5c1.1,0,1.9.7,1.9,1.9h0c0,.4-.2.6-.5.6s-.5-.2-.5-.5h0c0-.7-.4-1.1-1-1.1h-1.5c-.6,0-1,.3-1,1v.3c0,1,.2,1.2,1.7,1.2s2.7.4,2.7,1.9v.9c0,1.2-.8,1.9-1.9,1.9Z"/>
        <path class="cls-2" d="M21.8,16.5c-.1.6-.7,4.5-1.2,6.5-.2.8-.6,1.2-1.5,1.2-1.3,0-1.5-1-1.7-1.9l-1-5.9h0c0-.4.3-.6.5-.6s.4.1.5.4l1,5.9c.2.9.3,1,.7,1.1h0c.6,0,.6-.6.7-1.1l1.1-5.9c0-.3.3-.4.5-.4s.5.2.5.5,0,0,0,.1Z"/>
        <path class="cls-2" d="M27.4,24.1h-1.5c-1.1,0-1.9-.7-1.9-1.9v-4.3c0-1.2.9-1.9,1.9-1.9h1.5c1.1,0,1.9.7,1.9,1.9h0c0,.3-.3.5-.5.5s-.5-.2-.5-.5c0-.6-.4-.9-1-.9h-1.5c-.6,0-1,.3-1,1v4.3c0,.6.4,1,1,1h1.5c.6,0,1-.3,1-1v-1.5h-1.2c-.3,0-.5-.2-.5-.5s.2-.5.5-.5h1.7c.3,0,.5.2.5.5v2c0,1.2-.8,1.9-1.9,1.9Z"/>
      </g>
    </g>
  </g>
</svg>